# xmcd
#
# Track frame offsets: 
#        150
#        14595
#        29567
#        46719
#        68454
#
# Disc length: 1167 seconds
#
# Revision: 0
# Processed by: cddbd v1.5.2PL0 Copyright (c) Steve Scherf et al.
# Submitted via: ExactAudioCopy v0.99pb5
#
DISCID=36048d05
DTITLE=The Flying Eyes - Winter
DYEAR=2009
DGENRE=Psychedelic Rock
TTITLE0=We Are Not Alive
TTITLE1=Red Sheets
TTITLE2=Around The Bend
TTITLE3=Winter
TTITLE4=King Of Nowhere
EXTD=
EXTT0=
EXTT1=
EXTT2=
EXTT3=
EXTT4=
PLAYORDER=
